STARTFONT 2.1
FONT -MIT-22FGS KST-Medium-R-Normal--22-7-200-200-P-13-ISO8859-1
SIZE 7 200 200
FONTBOUNDINGBOX 13 22 -6 -5
STARTPROPERTIES 17
ADD_STYLE_NAME ""
AVERAGE_WIDTH 13
CHARSET_ENCODING "1"
CHARSET_REGISTRY "ISO8859"
DEFAULT_CHAR 0
FAMILY "22FGS KST"
FONT_ASCENT 17
FONT_DESCENT 5
FOUNDRY "MIT"
PIXEL_SIZE 22
POINT_SIZE 7
RESOLUTION_X 200
RESOLUTION_Y 200
SETWIDTH_NAME "Normal"
SLANT "R"
SPACING "P"
WEIGHT_NAME "Medium"
ENDPROPERTIES
CHARS 128
STARTCHAR char0
ENCODING 0
SWIDTH 1846 0
DWIDTH 13 0
BBX 10 22 0 -5
BITMAP
FFC0
FFC0
FFC0
FFC0
FFC0
FFC0
FFC0
FFC0
FFC0
FFC0
FFC0
FFC0
FFC0
FFC0
FFC0
FFC0
FFC0
FFC0
FFC0
FFC0
FFC0
FFC0
ENDCHAR
STARTCHAR char1
ENCODING 1
SWIDTH 1846 0
DWIDTH 13 0
BBX 10 22 0 -5
BITMAP
0C00
0C00
0C00
0C00
0C00
0C00
0C00
0C00
8C40
CCC0
CCC0
EDC0
6D80
3F00
3F00
1E00
0C00
0000
0000
0000
0000
0000
ENDCHAR
STARTCHAR char2
ENCODING 2
SWIDTH 1846 0
DWIDTH 13 0
BBX 10 22 0 -5
BITMAP
0000
0000
0000
0000
1840
3CC0
43C0
C380
C180
C180
C180
C380
43C0
3CC0
1840
0000
0000
0000
0000
0000
0000
0000
ENDCHAR
STARTCHAR char3
ENCODING 3
SWIDTH 1846 0
DWIDTH 13 0
BBX 10 22 0 -5
BITMAP
0780
0FC0
1CC0
18C0
30C0
30C0
6180
6300
6700
6380
C1C0
C0C0
C0C0
C0C0
F1C0
FF80
CE00
C000
C000
C000
0000
0000
ENDCHAR
STARTCHAR char4
ENCODING 4
SWIDTH 1846 0
DWIDTH 13 0
BBX 11 22 0 -5
BITMAP
0000
0000
0000
0000
0000
0000
0000
0400
0E00
1B00
1B00
3180
3180
60C0
60C0
C060
8020
0000
0000
0000
0000
0000
ENDCHAR
STARTCHAR char5
ENCODING 5
SWIDTH 1846 0
DWIDTH 13 0
BBX 10 22 0 -5
BITMAP
0000
0000
0000
0000
0000
0000
0000
0000
FFC0
FFC0
00C0
00C0
00C0
0000
0000
0000
0000
0000
0000
0000
0000
0000
ENDCHAR
STARTCHAR char6
ENCODING 6
SWIDTH 1846 0
DWIDTH 13 0
BBX 8 22 2 -5
BITMAP
00
00
00
00
00
0F
3C
70
C0
C0
FE
FE
C0
C0
70
3C
0F
00
00
00
00
00
ENDCHAR
STARTCHAR char7
ENCODING 7
SWIDTH 1846 0
DWIDTH 13 0
BBX 11 22 0 -5
BITMAP
0000
0000
0000
0000
0000
0000
7C20
FFE0
99C0
1980
1980
3180
3180
30C0
60C0
60C0
4040
0000
0000
0000
0000
0000
ENDCHAR
STARTCHAR char8
ENCODING 8
SWIDTH 1846 0
DWIDTH 13 0
BBX 10 22 0 -5
BITMAP
0000
0000
6000
F000
9800
8C00
0C00
0600
0600
0F00
0F00
1B00
3180
6180
C0C0
C0C0
8040
0000
0000
0000
0000
0000
ENDCHAR
STARTCHAR char9
ENCODING 9
SWIDTH 1846 0
DWIDTH 13 0
BBX 11 22 0 -5
BITMAP
0000
0000
0000
C060
60C0
71C0
3B80
1F00
0E00
0E00
0F00
0B00
0B00
0B00
0F00
0600
0000
0000
0000
0000
0000
0000
ENDCHAR
STARTCHAR char10
ENCODING 10
SWIDTH 1846 0
DWIDTH 13 0
BBX 10 22 1 -5
BITMAP
0000
1E00
7F80
E180
E000
7000
1C00
1F00
7F80
E1C0
C0C0
C0C0
C1C0
6380
3F00
1C00
0000
0000
0000
0000
0000
0000
ENDCHAR
STARTCHAR char11
ENCODING 11
SWIDTH 1846 0
DWIDTH 13 0
BBX 10 22 0 -5
BITMAP
0C00
1E00
3F00
6D80
6D80
CCC0
CCC0
8C40
0C00
0C00
0C00
0C00
0C00
0C00
0C00
0C00
0C00
0000
0000
0000
0000
0000
ENDCHAR
STARTCHAR char12
ENCODING 12
SWIDTH 1846 0
DWIDTH 13 0
BBX 10 22 0 -5
BITMAP
0000
0C00
0C00
0C00
0C00
0C00
FFC0
FFC0
0C00
0C00
0C00
0C00
0C00
0000
FFC0
FFC0
0000
0000
0000
0000
0000
0000
ENDCHAR
STARTCHAR char13
ENCODING 13
SWIDTH 1846 0
DWIDTH 13 0
BBX 10 22 0 -5
BITMAP
0000
0000
0000
0000
0C00
3F00
6D80
CCC0
8C40
FFC0
FFC0
8C40
CCC0
6D80
3F00
0C00
0000
0000
0000
0000
0000
0000
ENDCHAR
STARTCHAR char14
ENCODING 14
SWIDTH 1846 0
DWIDTH 13 0
BBX 11 22 0 -5
BITMAP
0000
0000
0000
0000
0000
0000
0000
3180
7BC0
4E40
C460
C460
4E40
7BC0
3180
0000
0000
0000
0000
0000
0000
0000
ENDCHAR
STARTCHAR char15
ENCODING 15
SWIDTH 1846 0
DWIDTH 13 0
BBX 10 22 0 -5
BITMAP
0C00
1F00
1980
00C0
00C0
00C0
00C0
1CC0
3FC0
61C0
C0C0
C0C0
C0C0
C180
6300
7E00
1C00
0000
0000
0000
0000
0000
ENDCHAR
STARTCHAR char16
ENCODING 16
SWIDTH 1846 0
DWIDTH 13 0
BBX 11 22 0 -5
BITMAP
0000
0000
0000
0000
0000
07E0
1FE0
3800
7000
E000
C000
C000
E000
7000
3800
1FE0
07E0
0000
0000
0000
0000
0000
ENDCHAR
STARTCHAR char17
ENCODING 17
SWIDTH 1846 0
DWIDTH 13 0
BBX 11 22 0 -5
BITMAP
0000
0000
0000
0000
0000
FC00
FF00
0380
01C0
00E0
0060
0060
00E0
01C0
0380
FF00
FC00
0000
0000
0000
0000
0000
ENDCHAR
STARTCHAR char18
ENCODING 18
SWIDTH 1846 0
DWIDTH 13 0
BBX 11 22 0 -5
BITMAP
0000
0000
0E00
3F80
71C0
E0E0
C060
C060
C060
C060
C060
C060
C060
C060
C060
C060
C060
0000
0000
0000
0000
0000
ENDCHAR
STARTCHAR char19
ENCODING 19
SWIDTH 1846 0
DWIDTH 13 0
BBX 11 22 0 -5
BITMAP
0000
0000
C060
C060
C060
C060
C060
C060
C060
C060
C060
C060
C060
E0E0
71C0
3F80
0E00
0000
0000
0000
0000
0000
ENDCHAR
STARTCHAR char20
ENCODING 20
SWIDTH 1846 0
DWIDTH 13 0
BBX 10 22 0 -5
BITMAP
0000
C0C0
C0C0
C0C0
6180
7F80
7F80
6180
6180
3300
3300
3300
1E00
1E00
1E00
0C00
0C00
0000
0000
0000
0000
0000
ENDCHAR
STARTCHAR char21
ENCODING 21
SWIDTH 1846 0
DWIDTH 13 0
BBX 11 22 0 -5
BITMAP
0000
FFE0
FFC0
00C0
00C0
00C0
00C0
00C0
1FC0
1FC0
00C0
00C0
00C0
00C0
00C0
FFC0
FFE0
0000
0000
0000
0000
0000
ENDCHAR
STARTCHAR char22
ENCODING 22
SWIDTH 1846 0
DWIDTH 13 0
BBX 10 22 1 -5
BITMAP
0000
0000
0000
0000
3F00
7F80
E3C0
F6C0
DCC0
CEC0
DBC0
F1C0
7F80
3F00
0000
0000
0000
0000
0000
0000
0000
0000
ENDCHAR
STARTCHAR char23
ENCODING 23
SWIDTH 1846 0
DWIDTH 13 0
BBX 10 22 0 -5
BITMAP
0000
0000
0000
0000
0000
0000
0000
3300
6180
C0C0
FFC0
FFC0
C0C0
6180
3300
0000
0000
0000
0000
0000
0000
0000
ENDCHAR
STARTCHAR char24
ENCODING 24
SWIDTH 1846 0
DWIDTH 13 0
BBX 11 22 0 -5
BITMAP
0000
0000
0000
0000
0000
0000
0C00
1800
3000
6000
FFE0
FFE0
6000
3000
1800
0C00
0000
0000
0000
0000
0000
0000
ENDCHAR
STARTCHAR char25
ENCODING 25
SWIDTH 1846 0
DWIDTH 13 0
BBX 11 22 0 -5
BITMAP
0000
0000
0000
0000
0000
0000
0600
0300
0180
00C0
FFE0
FFE0
00C0
0180
0300
0600
0000
0000
0000
0000
0000
0000
ENDCHAR
STARTCHAR char26
ENCODING 26
SWIDTH 1846 0
DWIDTH 13 0
BBX 11 22 0 -5
BITMAP
0000
0000
0000
0000
0000
0000
0060
00C0
FFE0
FFE0
0600
0C00
FFE0
FFE0
6000
C000
0000
0000
0000
0000
0000
0000
ENDCHAR
STARTCHAR char27
ENCODING 27
SWIDTH 1846 0
DWIDTH 13 0
BBX 11 22 0 -5
BITMAP
0000
0400
0400
0E00
0E00
1F00
3B80
71C0
E0E0
71C0
3B80
1F00
0E00
0E00
0400
0400
0000
0000
0000
0000
0000
0000
ENDCHAR
STARTCHAR char28
ENCODING 28
SWIDTH 1846 0
DWIDTH 13 0
BBX 10 22 0 -5
BITMAP
0000
0000
0000
00C0
0380
0F00
3C00
F000
F000
3C00
0F00
0380
00C0
0000
0000
FFC0
FFC0
0000
0000
0000
0000
0000
ENDCHAR
STARTCHAR char29
ENCODING 29
SWIDTH 1846 0
DWIDTH 13 0
BBX 10 22 0 -5
BITMAP
0000
0000
0000
C000
F000
3C00
0F00
03C0
03C0
0F00
3C00
F000
C000
0000
0000
FFC0
FFC0
0000
0000
0000
0000
0000
ENDCHAR
STARTCHAR char30
ENCODING 30
SWIDTH 1846 0
DWIDTH 13 0
BBX 10 22 0 -5
BITMAP
0000
0000
0000
0000
0000
0000
FFC0
FFC0
0000
0000
FFC0
FFC0
0000
0000
FFC0
FFC0
0000
0000
0000
0000
0000
0000
ENDCHAR
STARTCHAR char31
ENCODING 31
SWIDTH 1846 0
DWIDTH 13 0
BBX 11 22 0 -5
BITMAP
0000
0000
0000
0000
0000
0000
8020
C060
C060
60C0
60C0
3180
3180
1B00
1B00
0E00
0400
0000
0000
0000
0000
0000
ENDCHAR
STARTCHAR char32
ENCODING 32
SWIDTH 1846 0
DWIDTH 13 0
BBX 1 22 0 -5
BITMAP
00
00
00
00
00
00
00
00
00
00
00
00
00
00
00
00
00
00
00
00
00
00
ENDCHAR
STARTCHAR char33
ENCODING 33
SWIDTH 1846 0
DWIDTH 13 0
BBX 4 22 5 -5
BITMAP
00
00
60
60
60
60
60
60
60
60
60
60
00
00
60
F0
60
00
00
00
00
00
ENDCHAR
STARTCHAR char34
ENCODING 34
SWIDTH 1846 0
DWIDTH 13 0
BBX 6 22 4 -5
BITMAP
00
00
CC
CC
CC
CC
CC
CC
CC
00
00
00
00
00
00
00
00
00
00
00
00
00
ENDCHAR
STARTCHAR char35
ENCODING 35
SWIDTH 1846 0
DWIDTH 13 0
BBX 12 22 1 -5
BITMAP
0000
0000
0660
0660
0660
0CC0
0CC0
7FF0
7FF0
1980
1980
FFE0
FFE0
3300
3300
3300
6600
6600
6600
0000
0000
0000
ENDCHAR
STARTCHAR char36
ENCODING 36
SWIDTH 1846 0
DWIDTH 13 0
BBX 9 22 2 -5
BITMAP
0800
0800
3E00
7F00
EB00
C800
C800
E800
7E00
3F00
0B80
0980
0980
0980
CB80
FF00
7E00
0800
0800
0000
0000
0000
ENDCHAR
STARTCHAR char37
ENCODING 37
SWIDTH 1846 0
DWIDTH 13 0
BBX 11 22 1 -5
BITMAP
0000
0000
70C0
D8C0
8980
8980
DB00
7300
0600
0600
0C00
0C00
19C0
1B60
3220
3220
6360
61C0
0000
0000
0000
0000
ENDCHAR
STARTCHAR char38
ENCODING 38
SWIDTH 1846 0
DWIDTH 13 0
BBX 11 22 1 -5
BITMAP
0000
0000
1C00
3E00
7700
6300
7700
3E00
1C00
3E00
7760
E3E0
C1C0
C380
E7C0
FEE0
7C60
0000
0000
0000
0000
0000
ENDCHAR
STARTCHAR char39
ENCODING 39
SWIDTH 1846 0
DWIDTH 13 0
BBX 2 22 5 -5
BITMAP
00
00
C0
C0
C0
C0
C0
C0
C0
00
00
00
00
00
00
00
00
00
00
00
00
00
ENDCHAR
STARTCHAR char40
ENCODING 40
SWIDTH 1846 0
DWIDTH 13 0
BBX 5 22 3 -5
BITMAP
18
18
30
30
60
60
60
C0
C0
C0
C0
C0
C0
C0
60
60
60
30
30
18
18
00
ENDCHAR
STARTCHAR char41
ENCODING 41
SWIDTH 1846 0
DWIDTH 13 0
BBX 5 22 5 -5
BITMAP
C0
C0
60
60
30
30
30
18
18
18
18
18
18
18
30
30
30
60
60
C0
C0
00
ENDCHAR
STARTCHAR char42
ENCODING 42
SWIDTH 1846 0
DWIDTH 13 0
BBX 10 22 1 -5
BITMAP
0000
0000
0000
0000
0C00
0C00
0C00
EDC0
FFC0
3F00
1E00
3F00
7380
6180
0000
0000
0000
0000
0000
0000
0000
0000
ENDCHAR
STARTCHAR char43
ENCODING 43
SWIDTH 1846 0
DWIDTH 13 0
BBX 12 22 0 -5
BITMAP
0000
0000
0000
0000
0600
0600
0600
0600
0600
FFF0
FFF0
0600
0600
0600
0600
0600
0000
0000
0000
0000
0000
0000
ENDCHAR
STARTCHAR char44
ENCODING 44
SWIDTH 1846 0
DWIDTH 13 0
BBX 4 22 5 -5
BITMAP
00
00
00
00
00
00
00
00
00
00
00
00
00
00
60
F0
F0
30
60
C0
00
00
ENDCHAR
STARTCHAR char45
ENCODING 45
SWIDTH 1846 0
DWIDTH 13 0
BBX 7 22 3 -5
BITMAP
00
00
00
00
00
00
00
00
00
00
FE
FE
00
00
00
00
00
00
00
00
00
00
ENDCHAR
STARTCHAR char46
ENCODING 46
SWIDTH 1846 0
DWIDTH 13 0
BBX 4 22 5 -5
BITMAP
00
00
00
00
00
00
00
00
00
00
00
00
00
00
60
F0
60
00
00
00
00
00
ENDCHAR
STARTCHAR char47
ENCODING 47
SWIDTH 1846 0
DWIDTH 13 0
BBX 10 22 1 -5
BITMAP
0000
00C0
00C0
0180
0180
0300
0300
0600
0600
0C00
0C00
1800
1800
3000
3000
6000
6000
C000
C000
0000
0000
0000
ENDCHAR
STARTCHAR char48
ENCODING 48
SWIDTH 1846 0
DWIDTH 13 0
BBX 9 22 1 -5
BITMAP
0000
0000
3E00
7F80
6380
C780
C780
CD80
CD80
C980
D980
D980
F180
F180
E300
FF00
3E00
0000
0000
0000
0000
0000
ENDCHAR
STARTCHAR char49
ENCODING 49
SWIDTH 1846 0
DWIDTH 13 0
BBX 8 22 3 -5
BITMAP
00
00
F8
F8
18
18
18
18
18
18
18
18
18
18
18
FF
FF
00
00
00
00
00
ENDCHAR
STARTCHAR char50
ENCODING 50
SWIDTH 1846 0
DWIDTH 13 0
BBX 9 22 2 -5
BITMAP
0000
0000
1E00
3F00
7380
6180
0180
0380
0700
0E00
1C00
3800
7000
6000
C000
FF80
FF80
0000
0000
0000
0000
0000
ENDCHAR
STARTCHAR char51
ENCODING 51
SWIDTH 1846 0
DWIDTH 13 0
BBX 9 22 2 -5
BITMAP
0000
0000
3E00
7F00
6380
0180
0380
0700
3E00
3F00
0380
0180
0180
C180
E380
7F00
3E00
0000
0000
0000
0000
0000
ENDCHAR
STARTCHAR char52
ENCODING 52
SWIDTH 1846 0
DWIDTH 13 0
BBX 10 22 1 -5
BITMAP
0000
0000
0700
0F00
1B00
1B00
3300
3300
6300
6300
C300
FFC0
FFC0
0300
0300
0300
0300
0000
0000
0000
0000
0000
ENDCHAR
STARTCHAR char53
ENCODING 53
SWIDTH 1846 0
DWIDTH 13 0
BBX 9 22 2 -5
BITMAP
0000
0000
7F00
7F00
6000
6000
6000
7E00
7F00
6380
0180
0180
0180
C180
E300
7F00
3E00
0000
0000
0000
0000
0000
ENDCHAR
STARTCHAR char54
ENCODING 54
SWIDTH 1846 0
DWIDTH 13 0
BBX 9 22 2 -5
BITMAP
0000
0000
1E00
3F00
6300
6000
C000
DE00
FF00
E380
C180
C180
C180
C180
E380
7F00
3E00
0000
0000
0000
0000
0000
ENDCHAR
STARTCHAR char55
ENCODING 55
SWIDTH 1846 0
DWIDTH 13 0
BBX 8 22 3 -5
BITMAP
00
00
FF
FF
03
06
06
0C
0C
18
18
30
30
60
60
C0
C0
00
00
00
00
00
ENDCHAR
STARTCHAR char56
ENCODING 56
SWIDTH 1846 0
DWIDTH 13 0
BBX 10 22 1 -5
BITMAP
0000
0000
1E00
3F00
7380
6180
6180
3300
3F00
7F80
E1C0
C0C0
C0C0
C0C0
E1C0
7F80
3F00
0000
0000
0000
0000
0000
ENDCHAR
STARTCHAR char57
ENCODING 57
SWIDTH 1846 0
DWIDTH 13 0
BBX 9 22 2 -5
BITMAP
0000
0000
3E00
7F00
E300
C180
C180
C180
C180
E380
7F80
3D80
0180
0180
C300
FF00
7E00
0000
0000
0000
0000
0000
ENDCHAR
STARTCHAR char58
ENCODING 58
SWIDTH 1846 0
DWIDTH 13 0
BBX 4 22 5 -5
BITMAP
00
00
00
00
00
00
60
F0
60
00
00
00
00
00
60
F0
60
00
00
00
00
00
ENDCHAR
STARTCHAR char59
ENCODING 59
SWIDTH 1846 0
DWIDTH 13 0
BBX 4 22 5 -5
BITMAP
00
00
00
00
00
00
60
F0
60
00
00
00
00
00
60
F0
F0
30
60
C0
00
00
ENDCHAR
STARTCHAR char60
ENCODING 60
SWIDTH 1846 0
DWIDTH 13 0
BBX 9 22 2 -5
BITMAP
0000
0000
0180
0300
0600
0C00
1800
3000
6000
C000
C000
6000
3000
1800
0C00
0600
0300
0180
0000
0000
0000
0000
ENDCHAR
STARTCHAR char61
ENCODING 61
SWIDTH 1846 0
DWIDTH 13 0
BBX 9 22 2 -5
BITMAP
0000
0000
0000
0000
0000
0000
0000
FF80
FF80
0000
0000
FF80
FF80
0000
0000
0000
0000
0000
0000
0000
0000
0000
ENDCHAR
STARTCHAR char62
ENCODING 62
SWIDTH 1846 0
DWIDTH 13 0
BBX 9 22 2 -5
BITMAP
0000
0000
C000
6000
3000
1800
0C00
0600
0300
0180
0180
0300
0600
0C00
1800
3000
6000
C000
0000
0000
0000
0000
ENDCHAR
STARTCHAR char63
ENCODING 63
SWIDTH 1846 0
DWIDTH 13 0
BBX 8 22 3 -5
BITMAP
00
00
3C
7E
E7
C3
03
07
0E
1C
38
30
30
00
30
78
30
00
00
00
00
00
ENDCHAR
STARTCHAR char64
ENCODING 64
SWIDTH 1846 0
DWIDTH 13 0
BBX 9 22 2 -5
BITMAP
0000
0000
3E00
7F00
E380
C180
CF80
DF80
D980
D980
D980
D980
DF80
CF00
C000
E000
7F00
3F00
0000
0000
0000
0000
ENDCHAR
STARTCHAR char65
ENCODING 65
SWIDTH 1846 0
DWIDTH 13 0
BBX 11 22 1 -5
BITMAP
0000
0000
0E00
0E00
1B00
1B00
1B00
3180
3180
3180
3180
7FC0
7FC0
60C0
E0E0
C060
C060
0000
0000
0000
0000
0000
ENDCHAR
STARTCHAR char66
ENCODING 66
SWIDTH 1846 0
DWIDTH 13 0
BBX 9 22 2 -5
BITMAP
0000
0000
FC00
FE00
C300
C300
C300
C300
FE00
FF00
C300
C180
C180
C180
C380
FF00
FE00
0000
0000
0000
0000
0000
ENDCHAR
STARTCHAR char67
ENCODING 67
SWIDTH 1846 0
DWIDTH 13 0
BBX 10 22 1 -5
BITMAP
0000
0000
1F00
3F80
71C0
E0C0
C000
C000
C000
C000
C000
C000
C000
E0C0
71C0
3F80
1F00
0000
0000
0000
0000
0000
ENDCHAR
STARTCHAR char68
ENCODING 68
SWIDTH 1846 0
DWIDTH 13 0
BBX 9 22 2 -5
BITMAP
0000
0000
FC00
FF00
C300
C180
C180
C180
C180
C180
C180
C180
C180
C180
C300
FF00
FC00
0000
0000
0000
0000
0000
ENDCHAR
STARTCHAR char69
ENCODING 69
SWIDTH 1846 0
DWIDTH 13 0
BBX 9 22 2 -5
BITMAP
0000
0000
FF00
FF00
C000
C000
C000
C000
FE00
FE00
C000
C000
C000
C000
C000
FF80
FF80
0000
0000
0000
0000
0000
ENDCHAR
STARTCHAR char70
ENCODING 70
SWIDTH 1846 0
DWIDTH 13 0
BBX 8 22 2 -5
BITMAP
00
00
FF
FF
C0
C0
C0
C0
FE
FE
C0
C0
C0
C0
C0
C0
C0
00
00
00
00
00
ENDCHAR
STARTCHAR char71
ENCODING 71
SWIDTH 1846 0
DWIDTH 13 0
BBX 10 22 1 -5
BITMAP
0000
0000
1F00
3F80
71C0
E0C0
C000
C000
C000
CFC0
CFC0
C0C0
C0C0
C0C0
E1C0
7FC0
3EC0
0000
0000
0000
0000
0000
ENDCHAR
STARTCHAR char72
ENCODING 72
SWIDTH 1846 0
DWIDTH 13 0
BBX 9 22 2 -5
BITMAP
0000
0000
C180
C180
C180
C180
C180
C180
FF80
FF80
C180
C180
C180
C180
C180
C180
C180
0000
0000
0000
0000
0000
ENDCHAR
STARTCHAR char73
ENCODING 73
SWIDTH 1846 0
DWIDTH 13 0
BBX 6 22 4 -5
BITMAP
00
00
FC
FC
30
30
30
30
30
30
30
30
30
30
30
FC
FC
00
00
00
00
00
ENDCHAR
STARTCHAR char74
ENCODING 74
SWIDTH 1846 0
DWIDTH 13 0
BBX 9 22 2 -5
BITMAP
0000
0000
0F80
0F80
0180
0180
0180
0180
0180
0180
0180
C180
C180
C180
E380
7F00
3E00
0000
0000
0000
0000
0000
ENDCHAR
STARTCHAR char75
ENCODING 75
SWIDTH 1846 0
DWIDTH 13 0
BBX 10 22 2 -5
BITMAP
0000
0000
C180
C380
C700
CE00
DC00
F800
F000
F000
F800
DC00
CE00
C700
C380
C1C0
C0C0
0000
0000
0000
0000
0000
ENDCHAR
STARTCHAR char76
ENCODING 76
SWIDTH 1846 0
DWIDTH 13 0
BBX 9 22 2 -5
BITMAP
0000
0000
C000
C000
C000
C000
C000
C000
C000
C000
C000
C000
C000
C000
C000
FF80
FF80
0000
0000
0000
0000
0000
ENDCHAR
STARTCHAR char77
ENCODING 77
SWIDTH 1846 0
DWIDTH 13 0
BBX 11 22 1 -5
BITMAP
0000
0000
E0E0
E0E0
F1E0
F1E0
FBE0
DB60
DF60
CE60
CE60
C460
C060
C060
C060
C060
C060
0000
0000
0000
0000
0000
ENDCHAR
STARTCHAR char78
ENCODING 78
SWIDTH 1846 0
DWIDTH 13 0
BBX 9 22 2 -5
BITMAP
0000
0000
E180
E180
F180
F180
F980
D980
DD80
CD80
CD80
CF80
C780
C780
C380
C380
C180
0000
0000
0000
0000
0000
ENDCHAR
STARTCHAR char79
ENCODING 79
SWIDTH 1846 0
DWIDTH 13 0
BBX 11 22 1 -5
BITMAP
0000
0000
1F00
3F80
71C0
60C0
C060
C060
C060
C060
C060
C060
C060
60C0
71C0
3F80
1F00
0000
0000
0000
0000
0000
ENDCHAR
STARTCHAR char80
ENCODING 80
SWIDTH 1846 0
DWIDTH 13 0
BBX 9 22 2 -5
BITMAP
0000
0000
FE00
FF00
C380
C180
C180
C180
C380
FF00
FE00
C000
C000
C000
C000
C000
C000
0000
0000
0000
0000
0000
ENDCHAR
STARTCHAR char81
ENCODING 81
SWIDTH 1846 0
DWIDTH 13 0
BBX 11 22 1 -5
BITMAP
0000
0000
1F00
3F80
71C0
60C0
C060
C060
C060
C060
C060
C060
C060
60C0
71C0
3F80
1F00
0700
0380
0180
0000
0000
ENDCHAR
STARTCHAR char82
ENCODING 82
SWIDTH 1846 0
DWIDTH 13 0
BBX 10 22 2 -5
BITMAP
0000
0000
FE00
FF00
C380
C180
C180
C180
C380
FF00
FE00
DC00
CE00
C700
C380
C1C0
C0C0
0000
0000
0000
0000
0000
ENDCHAR
STARTCHAR char83
ENCODING 83
SWIDTH 1846 0
DWIDTH 13 0
BBX 10 22 1 -5
BITMAP
0000
0000
1F00
3F80
7180
6000
7000
3800
1C00
0F00
0780
01C0
00C0
00C0
E1C0
FF80
7F00
0000
0000
0000
0000
0000
ENDCHAR
STARTCHAR char84
ENCODING 84
SWIDTH 1846 0
DWIDTH 13 0
BBX 10 22 2 -5
BITMAP
0000
0000
FFC0
FFC0
0C00
0C00
0C00
0C00
0C00
0C00
0C00
0C00
0C00
0C00
0C00
0C00
0C00
0000
0000
0000
0000
0000
ENDCHAR
STARTCHAR char85
ENCODING 85
SWIDTH 1846 0
DWIDTH 13 0
BBX 9 22 2 -5
BITMAP
0000
0000
C180
C180
C180
C180
C180
C180
C180
C180
C180
C180
C180
C180
E380
7F00
3E00
0000
0000
0000
0000
0000
ENDCHAR
STARTCHAR char86
ENCODING 86
SWIDTH 1846 0
DWIDTH 13 0
BBX 11 22 1 -5
BITMAP
0000
0000
C060
C060
E0E0
E0E0
60C0
71C0
3180
3180
3180
1B00
1B00
1B00
1F00
0E00
0E00
0000
0000
0000
0000
0000
ENDCHAR
STARTCHAR char87
ENCODING 87
SWIDTH 1846 0
DWIDTH 13 0
BBX 11 22 1 -5
BITMAP
0000
0000
C060
C060
C060
C060
C060
E4E0
E4E0
6EC0
6EC0
6EC0
7FC0
3B80
3180
3180
3180
0000
0000
0000
0000
0000
ENDCHAR
STARTCHAR char88
ENCODING 88
SWIDTH 1846 0
DWIDTH 13 0
BBX 11 22 1 -5
BITMAP
0000
0000
C060
E0E0
60C0
71C0
3180
3B80
1F00
0E00
1F00
1B00
3B80
71C0
60C0
E0E0
C060
0000
0000
0000
0000
0000
ENDCHAR
STARTCHAR char89
ENCODING 89
SWIDTH 1846 0
DWIDTH 13 0
BBX 12 22 1 -5
BITMAP
0000
0000
C030
E070
6060
30C0
39C0
1F80
0F00
0600
0600
0600
0600
0600
0600
0600
0600
0000
0000
0000
0000
0000
ENDCHAR
STARTCHAR char90
ENCODING 90
SWIDTH 1846 0
DWIDTH 13 0
BBX 10 22 2 -5
BITMAP
0000
0000
FF80
FF80
0180
0300
0600
0600
0C00
0C00
1800
1800
3000
3000
6000
FFC0
FFC0
0000
0000
0000
0000
0000
ENDCHAR
STARTCHAR char91
ENCODING 91
SWIDTH 1846 0
DWIDTH 13 0
BBX 8 22 2 -5
BITMAP
00
FF
FF
C0
C0
C0
C0
C0
C0
C0
C0
C0
C0
C0
C0
C0
C0
C0
C0
FF
FF
00
ENDCHAR
STARTCHAR char92
ENCODING 92
SWIDTH 1846 0
DWIDTH 13 0
BBX 10 22 2 -5
BITMAP
0000
C000
C000
6000
6000
3000
3000
1800
1800
0C00
0C00
0600
0600
0300
0300
0180
0180
00C0
00C0
0000
0000
0000
ENDCHAR
STARTCHAR char93
ENCODING 93
SWIDTH 1846 0
DWIDTH 13 0
BBX 8 22 3 -5
BITMAP
00
FF
FF
03
03
03
03
03
03
03
03
03
03
03
03
03
03
03
03
FF
FF
00
ENDCHAR
STARTCHAR char94
ENCODING 94
SWIDTH 1846 0
DWIDTH 13 0
BBX 11 22 1 -5
BITMAP
0000
0E00
1B00
3180
60C0
C060
0000
0000
0000
0000
0000
0000
0000
0000
0000
0000
0000
0000
0000
0000
0000
0000
ENDCHAR
STARTCHAR char95
ENCODING 95
SWIDTH 1846 0
DWIDTH 13 0
BBX 12 22 1 -5
BITMAP
0000
0000
0000
0000
0000
0000
0000
0000
0000
0000
0000
0000
0000
0000
0000
0000
0000
0000
0000
FFF0
FFF0
0000
ENDCHAR
STARTCHAR char96
ENCODING 96
SWIDTH 1846 0
DWIDTH 13 0
BBX 5 22 4 -5
BITMAP
10
30
60
E0
F0
F8
F8
70
00
00
00
00
00
00
00
00
00
00
00
00
00
00
ENDCHAR
STARTCHAR char97
ENCODING 97
SWIDTH 1846 0
DWIDTH 13 0
BBX 10 22 2 -5
BITMAP
0000
0000
0000
0000
0000
0000
3E00
7F00
6380
0180
3D80
7F80
E380
C180
E380
7FC0
3EC0
0000
0000
0000
0000
0000
ENDCHAR
STARTCHAR char98
ENCODING 98
SWIDTH 1846 0
DWIDTH 13 0
BBX 9 22 2 -5
BITMAP
0000
0000
C000
C000
C000
C000
DE00
FF00
E380
C180
C180
C180
C180
C180
E380
FF00
DE00
0000
0000
0000
0000
0000
ENDCHAR
STARTCHAR char99
ENCODING 99
SWIDTH 1846 0
DWIDTH 13 0
BBX 9 22 2 -5
BITMAP
0000
0000
0000
0000
0000
0000
3F00
7F80
E180
C000
C000
C000
C000
C000
E180
7F80
3F00
0000
0000
0000
0000
0000
ENDCHAR
STARTCHAR char100
ENCODING 100
SWIDTH 1846 0
DWIDTH 13 0
BBX 9 22 2 -5
BITMAP
0000
0000
0180
0180
0180
0180
3D80
7F80
E380
C180
C180
C180
C180
C180
E380
7F80
3D80
0000
0000
0000
0000
0000
ENDCHAR
STARTCHAR char101
ENCODING 101
SWIDTH 1846 0
DWIDTH 13 0
BBX 9 22 2 -5
BITMAP
0000
0000
0000
0000
0000
0000
3E00
7F00
E380
C180
FF80
FF80
C000
C000
E380
7F80
3F00
0000
0000
0000
0000
0000
ENDCHAR
STARTCHAR char102
ENCODING 102
SWIDTH 1846 0
DWIDTH 13 0
BBX 9 22 2 -5
BITMAP
0000
0000
1F00
3F80
3180
3000
FE00
FE00
3000
3000
3000
3000
3000
3000
3000
3000
3000
0000
0000
0000
0000
0000
ENDCHAR
STARTCHAR char103
ENCODING 103
SWIDTH 1846 0
DWIDTH 13 0
BBX 9 22 2 -5
BITMAP
0000
0000
0000
0000
0000
0000
3D80
7F80
E380
C180
C180
C180
C180
C180
E380
7F80
3D80
0180
C380
FF00
7E00
0000
ENDCHAR
STARTCHAR char104
ENCODING 104
SWIDTH 1846 0
DWIDTH 13 0
BBX 9 22 2 -5
BITMAP
0000
0000
C000
C000
C000
C000
DE00
FF00
E380
C180
C180
C180
C180
C180
C180
C180
C180
0000
0000
0000
0000
0000
ENDCHAR
STARTCHAR char105
ENCODING 105
SWIDTH 1846 0
DWIDTH 13 0
BBX 6 22 3 -5
BITMAP
00
00
0C
0C
00
00
FC
FC
0C
0C
0C
0C
0C
0C
0C
0C
0C
00
00
00
00
00
ENDCHAR
STARTCHAR char106
ENCODING 106
SWIDTH 1846 0
DWIDTH 13 0
BBX 8 22 2 -5
BITMAP
00
00
03
03
00
00
3F
3F
03
03
03
03
03
03
03
03
C3
E3
7F
3E
00
00
ENDCHAR
STARTCHAR char107
ENCODING 107
SWIDTH 1846 0
DWIDTH 13 0
BBX 8 22 3 -5
BITMAP
00
00
C0
C0
C0
C0
C0
C6
CE
DC
F8
F0
F8
DC
CE
C7
C3
00
00
00
00
00
ENDCHAR
STARTCHAR char108
ENCODING 108
SWIDTH 1846 0
DWIDTH 13 0
BBX 5 22 3 -5
BITMAP
00
00
F8
F8
18
18
18
18
18
18
18
18
18
18
18
18
18
00
00
00
00
00
ENDCHAR
STARTCHAR char109
ENCODING 109
SWIDTH 1846 0
DWIDTH 13 0
BBX 12 22 0 -5
BITMAP
0000
0000
0000
0000
0000
0000
DDC0
FFE0
EF70
C630
C630
C630
C630
C630
C630
C630
C630
0000
0000
0000
0000
0000
ENDCHAR
STARTCHAR char110
ENCODING 110
SWIDTH 1846 0
DWIDTH 13 0
BBX 9 22 2 -5
BITMAP
0000
0000
0000
0000
0000
0000
DE00
FF00
E380
C180
C180
C180
C180
C180
C180
C180
C180
0000
0000
0000
0000
0000
ENDCHAR
STARTCHAR char111
ENCODING 111
SWIDTH 1846 0
DWIDTH 13 0
BBX 9 22 2 -5
BITMAP
0000
0000
0000
0000
0000
0000
3E00
7F00
E380
C180
C180
C180
C180
C180
E380
7F00
3E00
0000
0000
0000
0000
0000
ENDCHAR
STARTCHAR char112
ENCODING 112
SWIDTH 1846 0
DWIDTH 13 0
BBX 9 22 2 -5
BITMAP
0000
0000
0000
0000
0000
0000
DE00
FF00
E380
C180
C180
C180
C180
C180
E300
FF00
DE00
C000
C000
C000
C000
0000
ENDCHAR
STARTCHAR char113
ENCODING 113
SWIDTH 1846 0
DWIDTH 13 0
BBX 9 22 2 -5
BITMAP
0000
0000
0000
0000
0000
0000
3D80
7F80
E380
C180
C180
C180
C180
C180
E380
7F80
3D80
0180
0180
0180
0180
0000
ENDCHAR
STARTCHAR char114
ENCODING 114
SWIDTH 1846 0
DWIDTH 13 0
BBX 8 22 3 -5
BITMAP
00
00
00
00
00
00
DE
FF
F3
E3
C0
C0
C0
C0
C0
C0
C0
00
00
00
00
00
ENDCHAR
STARTCHAR char115
ENCODING 115
SWIDTH 1846 0
DWIDTH 13 0
BBX 8 22 2 -5
BITMAP
00
00
00
00
00
00
3E
7F
63
60
78
3E
0F
03
C3
FF
7E
00
00
00
00
00
ENDCHAR
STARTCHAR char116
ENCODING 116
SWIDTH 1846 0
DWIDTH 13 0
BBX 9 22 2 -5
BITMAP
0000
0000
1800
1800
1800
FF00
FF00
1800
1800
1800
1800
1800
1800
1800
1980
1F80
0F00
0000
0000
0000
0000
0000
ENDCHAR
STARTCHAR char117
ENCODING 117
SWIDTH 1846 0
DWIDTH 13 0
BBX 9 22 2 -5
BITMAP
0000
0000
0000
0000
0000
0000
C180
C180
C180
C180
C180
C180
C180
C180
E380
7F80
3D80
0000
0000
0000
0000
0000
ENDCHAR
STARTCHAR char118
ENCODING 118
SWIDTH 1846 0
DWIDTH 13 0
BBX 9 22 2 -5
BITMAP
0000
0000
0000
0000
0000
0000
C180
C180
C180
6300
6300
6300
3600
3600
3E00
1C00
1C00
0000
0000
0000
0000
0000
ENDCHAR
STARTCHAR char119
ENCODING 119
SWIDTH 1846 0
DWIDTH 13 0
BBX 11 22 1 -5
BITMAP
0000
0000
0000
0000
0000
0000
C060
C060
C460
CE60
EEE0
6EC0
6EC0
7BC0
3B80
3180
3180
0000
0000
0000
0000
0000
ENDCHAR
STARTCHAR char120
ENCODING 120
SWIDTH 1846 0
DWIDTH 13 0
BBX 9 22 2 -5
BITMAP
0000
0000
0000
0000
0000
0000
C180
C180
6300
3600
3E00
1C00
1C00
3600
6300
E380
C180
0000
0000
0000
0000
0000
ENDCHAR
STARTCHAR char121
ENCODING 121
SWIDTH 1846 0
DWIDTH 13 0
BBX 11 22 1 -5
BITMAP
0000
0000
0000
0000
0000
0000
6060
6060
30C0
30C0
18C0
1D80
0D80
0F80
0700
0700
0600
CE00
CC00
FC00
7800
0000
ENDCHAR
STARTCHAR char122
ENCODING 122
SWIDTH 1846 0
DWIDTH 13 0
BBX 9 22 2 -5
BITMAP
0000
0000
0000
0000
0000
0000
7F80
7F80
0300
0600
0C00
1800
3000
6000
C000
FF80
FF80
0000
0000
0000
0000
0000
ENDCHAR
STARTCHAR char123
ENCODING 123
SWIDTH 1846 0
DWIDTH 13 0
BBX 8 22 2 -5
BITMAP
00
07
0C
18
18
18
18
18
30
60
C0
60
30
18
18
18
18
18
0C
07
00
00
ENDCHAR
STARTCHAR char124
ENCODING 124
SWIDTH 1846 0
DWIDTH 13 0
BBX 2 22 6 -5
BITMAP
00
C0
C0
C0
C0
C0
C0
C0
C0
C0
C0
C0
C0
C0
C0
C0
C0
C0
C0
C0
C0
00
ENDCHAR
STARTCHAR char125
ENCODING 125
SWIDTH 1846 0
DWIDTH 13 0
BBX 6 22 4 -5
BITMAP
00
C0
60
30
30
30
30
30
30
18
0C
18
30
30
30
30
30
30
60
C0
00
00
ENDCHAR
STARTCHAR char126
ENCODING 126
SWIDTH 1846 0
DWIDTH 13 0
BBX 13 22 0 -5
BITMAP
0000
0000
0000
0000
0000
0000
0000
0000
0000
1C18
3F30
67E0
C1C0
0000
0000
0000
0000
0000
0000
0000
0000
0000
ENDCHAR
STARTCHAR char127
ENCODING 127
SWIDTH 1846 0
DWIDTH 13 0
BBX 11 22 1 -5
BITMAP
0000
0000
0E00
0E00
1F00
1B00
1B00
1B00
3180
3180
3180
71C0
60C0
E0E0
E0E0
FFE0
FFE0
0000
0000
0000
0000
0000
ENDCHAR
ENDFONT
